<?xml version="1.0" encoding="UTF-8"?>
<svg width="30px" height="30px" viewBox="0 0 30 30" version="1.1" xmlns="http://www.w3.org/2000/svg" xmlns:xlink="http://www.w3.org/1999/xlink">
    <!-- Generator: Sketch 54.1 (76490) - https://sketchapp.com -->
    <title>Facebook</title>
    <desc>Created with Sketch.</desc>
    <g id="Page-1" stroke="none" stroke-width="1" fill="none" fill-rule="evenodd">
        <g id="Test" transform="translate(-875.000000, -2572.000000)" fill-rule="nonzero">
            <g id="Group-9" transform="translate(-4.000000, 2460.000000)">
                <g id="Group-12">
                    <g id="Group-10" transform="translate(879.000000, 112.000000)">
                        <g id="Facebook">
                            <path d="M0,15 C0,6.71572835 6.71572835,0 15,0 C23.2842717,0 30,6.71572835 30,15 C30,23.2842717 23.2842717,30 15,30 C6.71572835,30 0,23.2842717 0,15 Z" id="back" fill="#3B5998"></path>
                            <path d="M16.563472,23.819673 L16.563472,15.658881 L18.8162074,15.658881 L19.1147435,12.8466269 L16.563472,12.8466269 L16.5672993,11.4390666 C16.5672993,10.7055875 16.6369897,10.3125726 17.6904776,10.3125726 L19.0987961,10.3125726 L19.0987961,7.5 L16.8457417,7.5 C14.139461,7.5 13.1869203,8.8642458 13.1869203,11.1584782 L13.1869203,12.8469454 L11.5,12.8469454 L11.5,15.6591995 L13.1869203,15.6591995 L13.1869203,23.819673 L16.563472,23.819673 Z" id="Shape" fill="#FFFFFF"></path>
                        </g>
                    </g>
                </g>
            </g>
        </g>
    </g>
</svg>