<?xml version="1.0" encoding="UTF-8"?>
<svg width="30px" height="30px" viewBox="0 0 30 30" version="1.1" xmlns="http://www.w3.org/2000/svg" xmlns:xlink="http://www.w3.org/1999/xlink">
    <!-- Generator: Sketch 54.1 (76490) - https://sketchapp.com -->
    <title>Instagram</title>
    <desc>Created with Sketch.</desc>
    <defs>
        <path d="M0,15 C0,6.71572835 6.71572835,0 15,0 C23.2842717,0 30,6.71572835 30,15 C30,23.2842717 23.2842717,30 15,30 C6.71572835,30 0,23.2842717 0,15 Z" id="path-1"></path>
    </defs>
    <g id="Page-1" stroke="none" stroke-width="1" fill="none" fill-rule="evenodd">
        <g id="Test" transform="translate(-946.000000, -2572.000000)">
            <g id="Group-9" transform="translate(-4.000000, 2460.000000)">
                <g id="Group-12">
                    <g id="Group-10" transform="translate(879.000000, 112.000000)">
                        <g id="Instagram" transform="translate(71.000000, 0.000000)">
                            <g id="back" fill="#FFFFFF" fill-rule="nonzero">
                                <path d="M0,15 C0,6.71572835 6.71572835,0 15,0 C23.2842717,0 30,6.71572835 30,15 C30,23.2842717 23.2842717,30 15,30 C6.71572835,30 0,23.2842717 0,15 Z" id="path-1"></path>
                            </g>
                            <g id="Shape-Clipped">
                                <mask id="mask-2" fill="white">
                                    <use xlink:href="#path-1"></use>
                                </mask>
                                <g id="path-1"></g>
                                <path d="M15.00075,7 C12.8280607,7 12.5553912,7.0095001 11.702049,7.04833385 C10.8503734,7.08733425 10.2690341,7.222169 9.7603621,7.4200044 C9.23418995,7.62433985 8.78785195,7.897676 8.34318065,8.342514 C7.898176,8.7871853 7.62483985,9.23352325 7.4198377,9.75952875 C7.2215023,10.2683674 7.0865009,10.8498735 7.04816715,11.7012156 C7.0100001,12.5545579 7,12.8273941 7,15.0000834 C7,17.1727726 7.00966675,17.4446088 7.04833385,18.297951 C7.0875009,19.1496266 7.22233565,19.730966 7.4200044,20.2396379 C7.6245065,20.76581 7.8978427,21.212148 8.34268065,21.6568193 C8.7871853,22.101824 9.23352325,22.3758268 9.7593621,22.5801623 C10.2683674,22.7779977 10.8498735,22.9128324 11.7013823,22.9518328 C12.5547245,22.9906666 12.8272273,23.0001667 14.99975,23.0001667 C17.172606,23.0001667 17.4444422,22.9906666 18.2977844,22.9518328 C19.1494599,22.9128324 19.731466,22.7779977 20.2404712,22.5801623 C20.7664767,22.3758268 21.212148,22.101824 21.6566527,21.6568193 C22.1016573,21.212148 22.3749935,20.76581 22.5799956,20.2398046 C22.7766644,19.730966 22.9116658,19.1494599 22.9516662,18.2981177 C22.9899999,17.4447755 23,17.1727726 23,15.0000834 C23,12.8273941 22.9899999,12.5547245 22.9516662,11.7013823 C22.9116658,10.8497067 22.7766644,10.2683674 22.5799956,9.7596954 C22.3749935,9.23352325 22.1016573,8.7871853 21.6566527,8.342514 C21.2116481,7.89750935 20.7666434,7.62417315 20.2399712,7.4200044 C19.729966,7.222169 19.1482932,7.08733425 18.2966177,7.04833385 C17.4432755,7.0095001 17.171606,7 14.99825,7 L15.00075,7 Z M14.2830758,8.4416817 C14.4960781,8.44134835 14.7337473,8.4416817 15.00075,8.4416817 C17.1367722,8.4416817 17.3899415,8.44934845 18.2334503,8.48768215 C19.0134585,8.5233492 19.4367962,8.6536839 19.7187991,8.76318505 C20.0921364,8.90818655 20.3583058,9.0815217 20.638142,9.3615246 C20.918145,9.6415275 21.0914801,9.90819695 21.2368149,10.2815342 C21.3463161,10.5632038 21.4768174,10.9865416 21.5123178,11.7665496 C21.5506516,12.6098917 21.558985,12.8632278 21.558985,14.99825 C21.558985,17.1332722 21.5506516,17.3866082 21.5123178,18.2299503 C21.4766508,19.0099584 21.3463161,19.4332962 21.2368149,19.7149658 C21.0918135,20.088303 20.918145,20.3541391 20.638142,20.6339754 C20.3581391,20.9139782 20.0923031,21.0873134 19.7187991,21.2323149 C19.4371296,21.3423161 19.0134585,21.4723174 18.2334503,21.5079845 C17.3901083,21.5463182 17.1367722,21.5546516 15.00075,21.5546516 C12.8645611,21.5546516 12.6113918,21.5463182 11.7680497,21.5079845 C10.9880416,21.4719841 10.5647038,21.3416494 10.2825342,21.2321483 C9.90919695,21.0871468 9.64252755,20.9138116 9.3625246,20.6338087 C9.0825217,20.3538057 8.90918655,20.087803 8.7638517,19.7142991 C8.65435055,19.4326295 8.5238492,19.0092918 8.48834885,18.2292836 C8.4500151,17.3859415 8.44234835,17.1326056 8.44234835,14.9962499 C8.44234835,12.8598943 8.4500151,12.6078918 8.48834885,11.7645496 C8.5240159,10.9845415 8.65435055,10.5612038 8.7638517,10.2792009 C8.9088532,9.9058636 9.0825217,9.63919415 9.3625246,9.35919125 C9.64252755,9.0791883 9.90919695,8.9058532 10.2825342,8.76051835 C10.5645371,8.6505172 10.9880416,8.52051585 11.7680497,8.48468215 C12.5060574,8.45134845 12.7920603,8.44134835 14.2830758,8.43968165 L14.2830758,8.4416817 Z M19.2711278,9.77002885 C18.7411223,9.77002885 18.3111178,10.1995333 18.3111178,10.7297055 C18.3111178,11.259711 18.7411223,11.6897155 19.2711278,11.6897155 C19.8011334,11.6897155 20.2311378,11.259711 20.2311378,10.7297055 C20.2311378,10.1997 19.8011334,9.7696955 19.2711278,9.7696955 L19.2711278,9.77002885 Z M15.00075,10.8917072 C12.7318931,10.8917072 10.8923739,12.7312264 10.8923739,15.0000834 C10.8923739,17.2689403 12.7318931,19.1076261 15.00075,19.1076261 C17.269607,19.1076261 19.1084594,17.2689403 19.1084594,15.0000834 C19.1084594,12.7312264 17.2694403,10.8917072 15.0005833,10.8917072 L15.00075,10.8917072 Z M15.00075,12.3333889 C16.473432,12.3333889 17.6674445,13.5272347 17.6674445,15.0000834 C17.6674445,16.4727654 16.473432,17.6667778 15.00075,17.6667778 C13.5279014,17.6667778 12.3340556,16.4727654 12.3340556,15.0000834 C12.3340556,13.5272347 13.5279014,12.3333889 15.00075,12.3333889 L15.00075,12.3333889 Z" id="Shape" fill="#000000" fill-rule="nonzero" mask="url(#mask-2)"></path>
                            </g>
                        </g>
                    </g>
                </g>
            </g>
        </g>
    </g>
</svg>