<?xml version="1.0" encoding="UTF-8"?>
<svg width="80px" height="60px" viewBox="0 0 120 80" version="1.1" xmlns="http://www.w3.org/2000/svg" xmlns:xlink="http://www.w3.org/1999/xlink">
    <!-- Generator: Sketch 54.1 (76490) - https://sketchapp.com -->
    <title>Group</title>
    <desc>Created with Sketch.</desc>
    <g id="Page-1" stroke="none" stroke-width="1" fill="none" fill-rule="evenodd">
        <g id="Test" transform="translate(-66.000000, -26.000000)">
            <g id="Group" transform="translate(66.000000, 26.000000)">
                <path d="M63.5488253,21.1690909 C58.6849762,21.1690909 54.7458064,25.14 54.7458064,30.0054545 C54.7458064,34.8890909 58.6849762,38.8459091 63.5488253,38.8459091 C68.4126743,38.8459091 72.3518442,34.8890909 72.3518442,30.0054545 C72.3518442,25.14 68.4126743,21.1690909 63.5488253,21.1690909" id="Fill-24" fill="#152F36"></path>
                <path d="M92.1817309,16.7736364 L85.219014,16.7736364 C84.0860328,16.7736364 83.1604479,15.8486364 83.1604479,14.7109091 C83.1604479,13.5777273 84.0860328,12.6486364 85.219014,12.6486364 L92.1817309,12.6486364 C93.3156177,12.6486364 94.2443725,13.5777273 94.2443725,14.7109091 C94.2443725,15.8486364 93.3156177,16.7736364 92.1817309,16.7736364 Z M63.5488253,46.9413636 C54.2458819,46.9413636 46.6867875,39.3486364 46.6867875,30.0054545 C46.6867875,20.6713636 54.2458819,13.0804545 63.5488253,13.0804545 C72.8603725,13.0804545 80.4149385,20.6713636 80.4149385,30.0054545 C80.4149385,39.3486364 72.8603725,46.9413636 63.5488253,46.9413636 Z M90.4555423,7.66772727 L88.0569008,7.66772727 C87.4120706,6.515 85.9430894,5.71181818 84.2318442,5.71181818 C82.5079196,5.71181818 81.0407498,6.515 80.4058819,7.66772727 L77.3805234,7.66772727 C76.810863,2.62863636 72.5447498,2.91322522e-13 67.3648253,2.91322522e-13 L51.9464102,2.91322522e-13 C46.7809762,2.91322522e-13 42.5053536,2.62863636 41.9461083,7.66772727 L36.6412026,7.66772727 C31.0885989,7.66772727 26.5747875,12.01 26.5747875,18.3795455 C28.7574291,21.075 31.2249008,23.8059091 32.5358442,24.2681818 C34.1252781,24.49 34.5504857,25.8404545 34.5504857,26.3913636 L34.5504857,47.6031818 C34.5504857,48.1763636 33.9006743,49.7086364 32.4914668,49.7172727 C30.7829385,50.3313636 29.1785611,50.8595455 27.6565989,51.325 C29.314863,54.6245455 32.7133536,56.8986364 36.6412026,56.8986364 L90.4555423,56.8986364 C96.01358,56.8986364 100.528297,52.3645455 100.528297,46.795 L100.528297,17.7663636 C100.528297,12.1895455 96.01358,7.66772727 90.4555423,7.66772727 L90.4555423,7.66772727 Z" id="Fill-25" fill="#152F36"></path>
                <path d="M30.3772026,26.0336364 C24.4849762,23.105 21.7421838,16.3927273 21.5212026,16.0186364 C21.0307875,15.1863636 20.3538064,9.55363636 18.7489762,8.21090909 C15.3962215,5.36727273 6.84090076,10.5109091 13.4744102,22.385 L5.54308944,22.385 C1.71667434,22.4186364 -2.3338917,27.2318182 1.62293849,32.1913636 C0.640296983,34.7418182 1.54550453,37.1481818 2.42354227,38.3159091 C1.59214604,41.0890909 3.22550453,43.6713636 3.97041019,44.3827273 C3.80014604,46.5272727 4.26837245,48.2622727 5.37191962,49.5854545 C6.49629698,50.9213636 12.2635423,54.5286364 30.3369008,48.1431818 C31.5609008,48.1354545 32.1260328,46.8086364 32.1260328,46.3077273 L32.1260328,27.8763636 C32.1260328,27.3990909 31.7565234,26.2254545 30.3772026,26.0336364" id="Fill-26" fill="#D8262D"></path>
                <path d="M1.15471208,67.4190909 L4.99924038,67.4190909 C6.15849146,67.4190909 7.01433196,67.6668157 7.56678755,68.1622727 C8.11924314,68.6577298 8.39546679,69.4236312 8.39546679,70.46 C8.39546679,71.4963688 8.11924314,72.2622703 7.56678755,72.7577273 C7.01433196,73.2531843 6.15849146,73.5009091 4.99924038,73.5009091 L3.07018378,73.5009091 L3.07018378,76.9645455 L1.15471208,76.9645455 L1.15471208,67.4190909 Z M5.05358,72.0009091 C5.47018586,72.0009091 5.81206923,71.8736376 6.07924038,71.6190909 C6.34641153,71.3645442 6.4799951,70.9781844 6.4799951,70.46 C6.4799951,69.9418156 6.34641153,69.5554558 6.07924038,69.3009091 C5.81206923,69.0463624 5.47018586,68.9190909 5.05358,68.9190909 L3.07018378,68.9190909 L3.07018378,72.0009091 L5.05358,72.0009091 Z M15.0520706,70.3918182 C15.7494325,70.3918182 16.2860309,70.5827254 16.6618819,70.9645455 C17.0377328,71.3463655 17.2256555,71.8918146 17.2256555,72.6009091 L17.2256555,76.9645455 L15.4596177,76.9645455 L15.4596177,72.7645455 C15.4596177,72.455453 15.375845,72.2100009 15.208297,72.0281818 C15.040749,71.8463627 14.8166003,71.7554545 14.5358441,71.7554545 C13.9381053,71.7554545 13.5079209,72.1099965 13.2452781,72.8190909 L13.2452781,76.9645455 L11.4792404,76.9645455 L11.4792404,68.8781818 C11.4792404,68.632726 11.4316937,68.432728 11.3365989,68.2781818 C11.241504,68.1236356 11.0716944,67.9554555 10.8271649,67.7736364 L12.0090517,66.7372727 C12.4709408,66.9736375 12.792447,67.2440894 12.97358,67.5486364 C13.154713,67.8531833 13.2452781,68.2781791 13.2452781,68.8236364 L13.2452781,71.1963636 C13.661884,70.6599973 14.2641421,70.3918182 15.0520706,70.3918182 Z M23.4067875,77.1281818 C22.464896,77.1281818 21.740375,76.9100022 21.2332026,76.4736364 C20.7260303,76.0372705 20.4724479,75.4145495 20.4724479,74.6054545 L20.4724479,72.9145455 C20.4724479,72.1054505 20.7260303,71.4827295 21.2332026,71.0463636 C21.740375,70.6099978 22.464896,70.3918182 23.4067875,70.3918182 C24.348679,70.3918182 25.0732001,70.6099978 25.5803724,71.0463636 C26.0875448,71.4827295 26.3411272,72.1054505 26.3411272,72.9145455 L26.3411272,74.6054545 C26.3411272,75.4145495 26.0875448,76.0372705 25.5803724,76.4736364 C25.0732001,76.9100022 24.348679,77.1281818 23.4067875,77.1281818 Z M23.4067875,75.7645455 C23.7781101,75.7645455 24.0656544,75.6645465 24.269429,75.4645455 C24.4732036,75.2645445 24.5750894,74.9781837 24.5750894,74.6054545 L24.5750894,72.9145455 C24.5750894,72.5418163 24.4732036,72.2554555 24.269429,72.0554545 C24.0656544,71.8554535 23.7781101,71.7554545 23.4067875,71.7554545 C23.0354649,71.7554545 22.7479206,71.8554535 22.544146,72.0554545 C22.3403714,72.2554555 22.2384856,72.5418163 22.2384856,72.9145455 L22.2384856,74.6054545 C22.2384856,74.9781837 22.3403714,75.2645445 22.544146,75.4645455 C22.7479206,75.6645465 23.0354649,75.7645455 23.4067875,75.7645455 Z M31.4626366,71.9190909 L31.4626366,74.5645455 C31.4626366,74.9463655 31.5215039,75.2145447 31.6392404,75.3690909 C31.7569768,75.5236371 31.9562201,75.6009091 32.2369762,75.6009091 L33.3101837,75.6009091 L33.3101837,76.9645455 L32.2369762,76.9645455 C31.6030108,76.9645455 31.1026384,76.8872735 30.7358441,76.7327273 C30.3690498,76.578181 30.1041468,76.3281835 29.9411271,75.9827273 C29.7781075,75.637271 29.6965988,75.1645485 29.6965988,74.5645455 L29.6965988,69.56 C29.6965988,69.3145442 29.6490521,69.1145462 29.5539573,68.96 C29.4588625,68.8054538 29.2890529,68.6372736 29.0445234,68.4554545 L30.2264102,67.4190909 C30.6882993,67.6554557 31.0098055,67.9259076 31.1909385,68.2304545 C31.3720714,68.5350015 31.4626366,68.9599973 31.4626366,69.5054545 L31.4626366,70.5554545 L33.3101837,70.5554545 L33.3101837,71.9190909 L31.4626366,71.9190909 Z M39.0158441,77.1281818 C38.0739526,77.1281818 37.3494316,76.9100022 36.8422592,76.4736364 C36.3350869,76.0372705 36.0815045,75.4145495 36.0815045,74.6054545 L36.0815045,72.9145455 C36.0815045,72.1054505 36.3350869,71.4827295 36.8422592,71.0463636 C37.3494316,70.6099978 38.0739526,70.3918182 39.0158441,70.3918182 C39.9577356,70.3918182 40.6822567,70.6099978 41.189429,71.0463636 C41.6966014,71.4827295 41.9501837,72.1054505 41.9501837,72.9145455 L41.9501837,74.6054545 C41.9501837,75.4145495 41.6966014,76.0372705 41.189429,76.4736364 C40.6822567,76.9100022 39.9577356,77.1281818 39.0158441,77.1281818 Z M39.0158441,75.7645455 C39.3871667,75.7645455 39.674711,75.6645465 39.8784856,75.4645455 C40.0822602,75.2645445 40.184146,74.9781837 40.184146,74.6054545 L40.184146,72.9145455 C40.184146,72.5418163 40.0822602,72.2554555 39.8784856,72.0554545 C39.674711,71.8554535 39.3871667,71.7554545 39.0158441,71.7554545 C38.6445215,71.7554545 38.3569772,71.8554535 38.1532026,72.0554545 C37.949428,72.2554555 37.8475422,72.5418163 37.8475422,72.9145455 L37.8475422,74.6054545 C37.8475422,74.9781837 37.949428,75.2645445 38.1532026,75.4645455 C38.3569772,75.6645465 38.6445215,75.7645455 39.0158441,75.7645455 Z M50.8211271,70.3918182 C50.8211271,69.428177 51.083766,68.6918207 51.6090516,68.1827273 C52.1343373,67.6736338 52.9992343,67.4190909 54.2037686,67.4190909 L57.3826366,67.4190909 L57.3826366,68.9190909 L54.2037686,68.9190909 C53.7056529,68.9190909 53.3366,69.0372715 53.0965988,69.2736364 C52.8565976,69.5100012 52.7365988,69.8827247 52.7365988,70.3918182 L52.7365988,71.7145455 L56.7849007,71.7145455 L56.7849007,73.2145455 L52.7365988,73.2145455 L52.7365988,76.9645455 L50.8211271,76.9645455 L50.8211271,70.3918182 Z M65.9003724,74.96 C65.9003724,75.2054558 65.9479191,75.4054538 66.0430139,75.56 C66.1381087,75.7145462 66.3079183,75.8827264 66.5524479,76.0645455 L65.3705611,77.1009091 C65.0716917,76.9463629 64.8362223,76.7827281 64.664146,76.61 C64.4920696,76.4372719 64.3607502,76.2327285 64.2701837,75.9963636 C63.8535779,76.7509129 63.2060372,77.1281818 62.3275422,77.1281818 C61.6120669,77.1281818 61.0596196,76.9372746 60.6701837,76.5554545 C60.2807478,76.1736345 60.0860328,75.6281854 60.0860328,74.9190909 L60.0860328,70.5554545 L61.8520705,70.5554545 L61.8520705,74.7554545 C61.8520705,75.064547 61.9403715,75.3099991 62.1169762,75.4918182 C62.2935808,75.6736373 62.5358426,75.7645455 62.8437686,75.7645455 C63.4415075,75.7645455 63.8716918,75.3736403 64.1343347,74.5918182 L64.1343347,70.5554545 L65.9003724,70.5554545 L65.9003724,74.96 Z M73.2090516,70.3918182 C73.9064136,70.3918182 74.443012,70.5827254 74.818863,70.9645455 C75.1947139,71.3463655 75.3826365,71.8918146 75.3826365,72.6009091 L75.3826365,76.9645455 L73.6165988,76.9645455 L73.6165988,72.7645455 C73.6165988,72.455453 73.5328261,72.2100009 73.365278,72.0281818 C73.19773,71.8463627 72.9735813,71.7554545 72.6928252,71.7554545 C72.0950864,71.7554545 71.664902,72.1099965 71.4022592,72.8190909 L71.4022592,76.9645455 L69.6362214,76.9645455 L69.6362214,72.5327273 C69.6362214,72.2872715 69.5886747,72.0872735 69.4935799,71.9327273 C69.3984851,71.778181 69.2286755,71.6100009 68.984146,71.4281818 L70.1660328,70.3918182 C70.4558455,70.5372735 70.6845225,70.6918174 70.8520705,70.8554545 C71.0196185,71.0190917 71.1486738,71.2099989 71.2392403,71.4281818 C71.4294299,71.1190894 71.6852764,70.8690919 72.0067875,70.6781818 C72.3282985,70.4872718 72.7290492,70.3918182 73.2090516,70.3918182 Z M87.7856554,77.1281818 C87.1335767,77.1281818 86.5879217,77.0554553 86.1486743,76.91 C85.7094268,76.7645447 85.3403739,76.5645467 85.0415044,76.31 C84.742635,76.0554533 84.4347136,75.7145476 84.1177309,75.2872727 L85.4082969,74.21 C85.7796195,74.7281844 86.1396159,75.0940898 86.4882969,75.3077273 C86.8369779,75.5213647 87.2694264,75.6281818 87.7856554,75.6281818 C88.5011307,75.6281818 89.0218802,75.5236374 89.3479195,75.3145455 C89.6739589,75.1054535 89.8369761,74.7690932 89.8369761,74.3054545 C89.8369761,74.0690897 89.7599958,73.8759098 89.6060327,73.7259091 C89.4520697,73.5759083 89.1871667,73.4372734 88.8113158,73.31 C88.4354648,73.1827266 87.8762251,73.041819 87.1335799,72.8872727 C86.2641416,72.7054536 85.618865,72.3804569 85.1977309,71.9122727 C84.7765967,71.4440886 84.5660327,70.8190948 84.5660327,70.0372727 C84.5660327,69.4736335 84.7086728,68.9827294 84.9939573,68.5645455 C85.2792417,68.1463615 85.6845207,67.8236375 86.2098063,67.5963636 C86.735092,67.3690898 87.3464066,67.2554545 88.0437686,67.2554545 C88.9494335,67.2554545 89.6694263,67.3895441 90.2037686,67.6577273 C90.7381109,67.9259104 91.1728235,68.3190883 91.5079195,68.8372727 L90.2445233,69.8736364 C89.9637672,69.5918168 89.730562,69.3759098 89.5449007,69.2259091 C89.3592394,69.0759083 89.1486754,68.9600004 88.9132026,68.8781818 C88.6777297,68.7963632 88.3879213,68.7554545 88.0437686,68.7554545 C87.5275396,68.7554545 87.1381095,68.8690898 86.8754667,69.0963636 C86.6128239,69.3236375 86.4815044,69.650907 86.4815044,70.0781818 C86.4815044,70.4781838 86.6490499,70.7713627 86.984146,70.9577273 C87.319242,71.1440918 87.7494263,71.296363 88.274712,71.4145455 C89.0535838,71.5781826 89.673955,71.7463628 90.1358441,71.9190909 C90.5977332,72.091819 90.982635,72.369089 91.290561,72.7509091 C91.5984871,73.1327292 91.7524478,73.6554512 91.7524478,74.3190909 C91.7524478,75.2645502 91.4241492,75.9690886 90.7675422,76.4327273 C90.1109351,76.896366 89.1169828,77.1281818 87.7856554,77.1281818 Z M98.639995,70.3918182 C99.337357,70.3918182 99.8739554,70.5827254 100.249806,70.9645455 C100.625657,71.3463655 100.81358,71.8918146 100.81358,72.6009091 L100.81358,76.9645455 L99.0475422,76.9645455 L99.0475422,72.7645455 C99.0475422,72.455453 98.9637694,72.2100009 98.7962214,72.0281818 C98.6286734,71.8463627 98.4045247,71.7554545 98.1237686,71.7554545 C97.5260297,71.7554545 97.0958454,72.1099965 96.8332025,72.8190909 L96.8332025,76.9645455 L95.0671648,76.9645455 L95.0671648,68.8781818 C95.0671648,68.632726 95.0196181,68.432728 94.9245233,68.2781818 C94.8294285,68.1236356 94.6596189,67.9554555 94.4150893,67.7736364 L95.5969761,66.7372727 C96.0588652,66.9736375 96.3803715,67.2440894 96.5615044,67.5486364 C96.7426374,67.8531833 96.8332025,68.2781791 96.8332025,68.8236364 L96.8332025,71.1963636 C97.2498084,70.6599973 97.8520665,70.3918182 98.639995,70.3918182 Z M106.994712,77.1281818 C106.05282,77.1281818 105.328299,76.9100022 104.821127,76.4736364 C104.313955,76.0372705 104.060372,75.4145495 104.060372,74.6054545 L104.060372,72.9145455 C104.060372,72.1054505 104.313955,71.4827295 104.821127,71.0463636 C105.328299,70.6099978 106.05282,70.3918182 106.994712,70.3918182 C107.936603,70.3918182 108.661125,70.6099978 109.168297,71.0463636 C109.675469,71.4827295 109.929052,72.1054505 109.929052,72.9145455 L109.929052,74.6054545 C109.929052,75.4145495 109.675469,76.0372705 109.168297,76.4736364 C108.661125,76.9100022 107.936603,77.1281818 106.994712,77.1281818 Z M106.994712,75.7645455 C107.366035,75.7645455 107.653579,75.6645465 107.857353,75.4645455 C108.061128,75.2645445 108.163014,74.9781837 108.163014,74.6054545 L108.163014,72.9145455 C108.163014,72.5418163 108.061128,72.2554555 107.857353,72.0554545 C107.653579,71.8554535 107.366035,71.7554545 106.994712,71.7554545 C106.623389,71.7554545 106.335845,71.8554535 106.13207,72.0554545 C105.928296,72.2554555 105.82641,72.5418163 105.82641,72.9145455 L105.82641,74.6054545 C105.82641,74.9781837 105.928296,75.2645445 106.13207,75.4645455 C106.335845,75.6645465 106.623389,75.7645455 106.994712,75.7645455 Z M117.088297,70.3918182 C117.686036,70.3918182 118.195465,70.5349986 118.616599,70.8213636 C119.037733,71.1077287 119.352447,71.4895431 119.56075,71.9668182 C119.769053,72.4440933 119.873203,72.969088 119.873203,73.5418182 L119.873203,73.9781818 C119.873203,74.550912 119.769053,75.0759067 119.56075,75.5531818 C119.352447,76.0304569 119.037733,76.4122713 118.616599,76.6986364 C118.195465,76.9850014 117.686036,77.1281818 117.088297,77.1281818 C116.572068,77.1281818 116.166789,77.057728 115.872448,76.9168182 C115.578107,76.7759084 115.326788,76.5690923 115.118486,76.2963636 L115.118486,79.9509091 L113.352448,79.9509091 L113.352448,72.5327273 C113.352448,72.2872715 113.304901,72.0872735 113.209806,71.9327273 C113.114711,71.778181 112.944902,71.6100009 112.700372,71.4281818 L113.882259,70.3918182 C114.181129,70.5463644 114.418862,70.7099991 114.595467,70.8827273 C114.772071,71.0554554 114.901127,71.2599988 114.982636,71.4963636 C115.444526,70.7599963 116.146405,70.3918182 117.088297,70.3918182 Z M118.107165,73.5418182 C118.107165,73.0509066 117.973581,72.6304563 117.70641,72.2804545 C117.439239,71.9304528 117.06113,71.7554545 116.57207,71.7554545 C115.811312,71.7554545 115.326788,72.1281781 115.118486,72.8736364 L115.118486,74.6463636 C115.326788,75.3918219 115.811312,75.7645455 116.57207,75.7645455 C117.070186,75.7645455 117.45056,75.5918199 117.713203,75.2463636 C117.975845,74.9009074 118.107165,74.4781843 118.107165,73.9781818 L118.107165,73.5418182 Z" id="PhotoFunShop" fill="#4A5D6E" fill-rule="nonzero"></path>
            </g>
        </g>
    </g>
</svg>