<?xml version="1.0" encoding="UTF-8"?>
<svg width="25px" height="25px" viewBox="0 0 25 25" version="1.1" xmlns="http://www.w3.org/2000/svg" xmlns:xlink="http://www.w3.org/1999/xlink">
    <!-- Generator: Sketch 54.1 (76490) - https://sketchapp.com -->
    <title>Style</title>
    <desc>Created with Sketch.</desc>
    <g id="Page-1" stroke="none" stroke-width="1" fill="none" fill-rule="evenodd">
        <g id="Test" transform="translate(-594.000000, -230.000000)" fill="#A0A0A0">
            <path d="M619,253.720506 L609.989481,244.709987 C613.025843,240.99198 612.614275,235.546333 609.0536,232.326912 C605.492926,229.107491 600.033475,229.244796 596.639136,232.639136 C593.244796,236.033475 593.107491,241.492926 596.326912,245.0536 C599.546333,248.614275 604.99198,249.025843 608.709987,245.989481 L617.720506,255 L619,253.720506 Z M595.833956,239.042371 C595.833956,235.061273 599.061273,231.833956 603.042371,231.833956 C607.023469,231.833956 610.250786,235.061273 610.250786,239.042371 C610.250786,243.023469 607.023469,246.250786 603.042371,246.250786 C601.13058,246.250786 599.297092,245.49133 597.945252,244.13949 C596.593411,242.78765 595.833956,240.954161 595.833956,239.042371 L595.833956,239.042371 Z" id="Style"></path>
        </g>
    </g>
</svg>