<?xml version="1.0" encoding="UTF-8"?>
<svg width="30px" height="30px" viewBox="0 0 30 30" version="1.1" xmlns="http://www.w3.org/2000/svg" xmlns:xlink="http://www.w3.org/1999/xlink">
    <!-- Generator: Sketch 54.1 (76490) - https://sketchapp.com -->
    <title>Twitter</title>
    <desc>Created with Sketch.</desc>
    <g id="Page-1" stroke="none" stroke-width="1" fill="none" fill-rule="evenodd">
        <g id="Test" transform="translate(-1016.000000, -2573.000000)" fill-rule="nonzero">
            <g id="Group-9" transform="translate(-4.000000, 2460.000000)">
                <g id="Group-12">
                    <g id="Group-10" transform="translate(879.000000, 112.000000)">
                        <g id="Twitter" transform="translate(141.000000, 1.000000)">
                            <path d="M0.1875,15 C0.1875,6.71572835 6.81928175,0 15,0 C23.1807183,0 29.8125,6.71572835 29.8125,15 C29.8125,23.2842717 23.1807183,30 15,30 C6.81928175,30 0.1875,23.2842717 0.1875,15 Z" id="back" fill="#55ACEE"></path>
                            <path d="M14.2316881,11.9667726 L14.2625773,12.4923765 L13.7477568,12.4280168 C11.87381,12.1813048 10.2366807,11.3446292 8.84666522,9.93944326 L8.16710209,9.24221364 L7.99206313,9.7570909 C7.62139233,10.9048382 7.85820976,12.1169451 8.63044058,12.9321675 C9.04229702,13.3826851 8.94962933,13.4470447 8.23917699,13.1788795 C7.99206313,13.0930666 7.77583849,13.0287069 7.75524565,13.0608868 C7.6831708,13.135973 7.93028466,14.1120945 8.12591646,14.4982525 C8.39362315,15.034583 8.93933291,15.5601869 9.53652478,15.8712586 L10.0410489,16.1179706 L9.44385704,16.1286972 C8.86725806,16.1286972 8.84666522,16.1394238 8.9084437,16.3646826 C9.11437192,17.0619123 9.92778837,17.8020484 10.8338725,18.1238467 L11.47225,18.3491055 L10.9162438,18.692357 C10.092531,19.1857811 9.12466834,19.4646729 8.15680572,19.4861261 C7.69346722,19.4968528 7.3125,19.5397592 7.3125,19.571939 C7.3125,19.6792051 8.56866211,20.2798953 9.29970729,20.5158807 C11.4928428,21.2131104 14.0978348,20.9127653 16.0541528,19.7221115 C17.4441683,18.8747094 18.8341838,17.1906316 19.4828577,15.5601869 C19.8329356,14.6913315 20.1830136,13.1037932 20.1830136,12.3422039 C20.1830136,11.8487799 20.2139029,11.7844202 20.7905019,11.1944566 C21.1302834,10.8512051 21.4494722,10.4757738 21.5112506,10.3685077 C21.6142148,10.1647021 21.6039183,10.1647021 21.0788014,10.3470544 C20.2036064,10.6688528 20.0800495,10.6259463 20.5124988,10.1432489 C20.8316875,9.79999733 21.2126547,9.17785399 21.2126547,8.99550159 C21.2126547,8.96332179 21.0582085,9.0169548 20.8831696,9.1134943 C20.6978341,9.22076042 20.2859777,9.38165956 19.9770854,9.47819905 L19.4210792,9.66055141 L18.9165551,9.30657328 C18.638552,9.1134943 18.2472884,8.89896209 18.0413601,8.83460245 C17.5162432,8.68442989 16.7131231,8.70588311 16.2394883,8.87750888 C14.9524369,9.36020635 14.1390204,10.6044931 14.2316881,11.9667726 Z" id="Shape" fill="#FFFFFF"></path>
                        </g>
                    </g>
                </g>
            </g>
        </g>
    </g>
</svg>