<?xml version="1.0" encoding="UTF-8"?>
<svg width="30px" height="19px" viewBox="0 0 30 19" version="1.1" xmlns="http://www.w3.org/2000/svg" xmlns:xlink="http://www.w3.org/1999/xlink">
    <!-- Generator: Sketch 54.1 (76490) - https://sketchapp.com -->
    <title>Fill 346</title>
    <desc>Created with Sketch.</desc>
    <g id="Page-1" stroke="none" stroke-width="1" fill="none" fill-rule="evenodd">
        <g id="Artboard" transform="translate(-251.000000, -10.000000)" fill="#3A4145">
            <path d="M279.942105,11.4338091 L277.483463,24.7617909 L275.807497,15.5746 C275.66079,14.7700364 274.8908,14.1397545 274.054694,14.1397545 L261.089238,14.1397545 C260.76473,14.1397545 260.428966,13.8614909 260.37089,13.5440182 L260.257777,12.9234091 C260.118575,12.1601273 259.418454,11.5548909 258.633276,11.4946091 C258.74067,11.2286091 259.03337,11.0152909 259.317493,11.0152909 L279.59401,11.0152909 C279.714092,11.0152909 279.811123,11.0538091 279.874201,11.1267 C279.940318,11.2027 279.964263,11.3120364 279.942105,11.4338091 Z M276.860537,27.8734727 C276.79728,27.9461909 276.700428,27.9848818 276.580168,27.9848818 L255.415365,27.9848818 C255.090501,27.9848818 254.754914,27.7064455 254.697018,27.3889727 L252.058252,12.9234091 C252.035916,12.8007727 252.059861,12.6914364 252.125799,12.6154364 C252.189056,12.5423727 252.285908,12.5040273 252.406168,12.5040273 L258.505153,12.5040273 C258.829838,12.5040273 259.165603,12.7822909 259.2235,13.0997636 L259.336613,13.7203727 C259.483499,14.5247636 260.25331,15.1552182 261.089238,15.1552182 L274.054694,15.1552182 C274.379558,15.1552182 274.715145,15.4336545 274.773041,15.7509545 L276.928262,27.5653273 C276.950778,27.6879636 276.926475,27.7974727 276.860537,27.8734727 Z M280.678858,10.4741364 C280.417429,10.1727273 280.021981,10 279.59401,10 L259.317493,10 C258.481386,10 257.711575,10.6302818 257.565225,11.4322545 L257.554682,11.4887364 L252.406168,11.4887364 C251.978198,11.4887364 251.582571,11.6614636 251.321142,11.9627 C251.05614,12.2680818 250.947673,12.6824545 251.023796,13.0995909 L253.66274,27.5653273 C253.809448,28.3698909 254.579259,29 255.415365,29 L276.580168,29 C277.008317,29 277.403765,28.8274455 277.665194,28.5260364 C277.826554,28.3403545 277.928767,28.1139091 277.967722,27.8712273 L277.97612,27.8727818 L280.976204,11.6110273 C281.052327,11.1938909 280.94386,10.7795182 280.678858,10.4741364 L280.678858,10.4741364 Z" id="Fill-346"></path>
        </g>
    </g>
</svg>