<?xml version="1.0" encoding="UTF-8"?>
<svg width="20px" height="20px" viewBox="0 0 20 20" version="1.1" xmlns="http://www.w3.org/2000/svg" xmlns:xlink="http://www.w3.org/1999/xlink">
    <!-- Generator: Sketch 54.1 (76490) - https://sketchapp.com -->
    <title>Style</title>
    <desc>Created with Sketch.</desc>
    <g id="Page-1" stroke="none" stroke-width="1" fill="none" fill-rule="evenodd">
        <g id="Artboard" transform="translate(-198.000000, -10.000000)" fill="#000000">
            <path d="M218,28.976405 L210.791585,21.7679898 C213.220674,18.7935837 212.89142,14.4370663 210.04288,11.8615297 C207.19434,9.28599317 202.82678,9.39583716 200.111308,12.1113084 C197.395837,14.8267797 197.285993,19.1943404 199.86153,22.0428803 C202.437066,24.8914202 206.793584,25.2206745 209.76799,22.7915848 L216.976405,30 L218,28.976405 Z M199.467164,17.2338967 C199.467164,14.0490184 202.049018,11.4671645 205.233897,11.4671645 C208.418775,11.4671645 211.000629,14.0490184 211.000629,17.2338967 C211.000629,20.4187749 208.418775,23.0006288 205.233897,23.0006288 C203.704464,23.0006288 202.237673,22.3930641 201.156201,21.3115921 C200.074729,20.23012 199.467164,18.7633291 199.467164,17.2338967 L199.467164,17.2338967 Z" id="Style"></path>
        </g>
    </g>
</svg>