<?xml version="1.0" encoding="UTF-8"?>
<svg width="26px" height="23px" viewBox="0 0 26 23" version="1.1" xmlns="http://www.w3.org/2000/svg" xmlns:xlink="http://www.w3.org/1999/xlink">
    <!-- Generator: Sketch 54.1 (76490) - https://sketchapp.com -->
    <title>home-icon-silhouette</title>
    <desc>Created with Sketch.</desc>
    <g id="Page-1" stroke="none" stroke-width="1" fill="none" fill-rule="evenodd">
        <g id="Artboard" transform="translate(-138.000000, -10.000000)" fill="#000000" fill-rule="nonzero">
            <g id="home-icon-silhouette" transform="translate(138.000000, 10.000000)">
                <path d="M25.5325766,10.3805671 L21.5969315,6.64281818 L21.5969315,2.32509091 C21.5969315,1.54438528 20.9307863,0.911686147 20.1075403,0.911686147 C19.2861815,0.911686147 18.6200363,1.54438528 18.6200363,2.32509091 L18.6200363,3.81566017 L15.6896371,1.03251082 C14.2408185,-0.342709957 11.7218065,-0.340270563 10.2762903,1.035 L0.435709677,10.3805671 C-0.145201613,10.9333636 -0.145201613,11.8278247 0.435709677,12.3797749 C1.01688306,12.9324221 1.96053629,12.9324221 2.5415,12.3797749 L12.3811371,3.03395887 C12.7016815,2.73112554 13.2666573,2.73112554 13.5855242,3.03306277 L23.4268387,12.3797749 C23.7186573,12.6561234 24.0991169,12.7935758 24.4794718,12.7935758 C24.8606129,12.7935758 25.2417016,12.655974 25.532629,12.3797749 C26.11375,11.8278745 26.11375,10.9334134 25.5325766,10.3805671 Z" id="Path"></path>
                <path d="M13.5011815,5.71694372 C13.2152863,5.44557359 12.752371,5.44557359 12.4673145,5.71694372 L3.81151613,13.9350628 C3.67485887,14.0647987 3.59738306,14.2419286 3.59738306,14.4267749 L3.59738306,20.4207641 C3.59738306,21.8272987 4.79820565,22.9676905 6.27915726,22.9676905 L10.5646492,22.9676905 L10.5646492,16.6645952 L15.4029032,16.6645952 L15.4029032,22.9676905 L19.6884476,22.9676905 C21.1693468,22.9676905 22.3701694,21.8272987 22.3701694,20.4208139 L22.3701694,14.4267749 C22.3701694,14.2419286 22.293375,14.0647987 22.1560363,13.9350628 L13.5011815,5.71694372 Z" id="Path"></path>
            </g>
        </g>
    </g>
</svg>